<?xml version="1.0" encoding="UTF-8" standalone="no"?>
<!-- Base artwork: "Pegasus (facing right)" by mairin, via Openclipart (openclipart.org/detail/322914), CC0/Public Domain. Horn added for this deck. -->
<svg
   xmlns:dc="http://purl.org/dc/elements/1.1/"
   xmlns:cc="http://creativecommons.org/ns#"
   xmlns:rdf="http://www.w3.org/1999/02/22-rdf-syntax-ns#"
   xmlns:svg="http://www.w3.org/2000/svg"
   xmlns="http://www.w3.org/2000/svg"
   xmlns:sodipodi="http://sodipodi.sourceforge.net/DTD/sodipodi-0.dtd"
   xmlns:inkscape="http://www.inkscape.org/namespaces/inkscape"
   sodipodi:docname="pegagus.svg"
   inkscape:version="1.0 (4035a4fb49, 2020-05-01)"
   id="svg8"
   version="1.1"
   viewBox="0 -35 246.90121 251.30986"
   height="251.30986mm"
   width="246.90121mm">
  <defs
     id="defs2" />
  <sodipodi:namedview
     inkscape:window-maximized="1"
     inkscape:window-y="34"
     inkscape:window-x="0"
     inkscape:window-height="1369"
     inkscape:window-width="2560"
     fit-margin-bottom="0"
     fit-margin-right="0"
     fit-margin-left="0"
     fit-margin-top="0"
     inkscape:snap-global="false"
     showgrid="false"
     inkscape:document-rotation="0"
     inkscape:current-layer="layer1"
     inkscape:document-units="mm"
     inkscape:cy="257.6405"
     inkscape:cx="403.54907"
     inkscape:zoom="0.98994949"
     inkscape:pageshadow="2"
     inkscape:pageopacity="0.0"
     borderopacity="1.0"
     bordercolor="#666666"
     pagecolor="#ffffff"
     id="base" />
  <metadata
     id="metadata5">
    <rdf:RDF>
      <cc:Work
         rdf:about="">
        <dc:format>image/svg+xml</dc:format>
        <dc:type
           rdf:resource="http://purl.org/dc/dcmitype/StillImage" />
        <dc:title></dc:title>
      </cc:Work>
    </rdf:RDF>
  </metadata>
  <g
     transform="translate(358.607,126.94375)"
     id="layer1"
     inkscape:groupmode="layer"
     inkscape:label="Layer 1">
    <path
       sodipodi:nodetypes="cccssssssssssscccccccccccccccccccccccssssccscssccccscccssssssssssscsscssssccssssscccsssssssssssssssssccssssssssssssssssscsscscscsssccscscsssscssssscsscssssccsssssscccscssssscccccssssssscsssssscccccccssscccsscccsscsssssscssssssscccccsssssssscsccsccsssssssssssssccssccssscccccssscsssssccccccsssssssccssssssssscccscccsscsssssscssssssssssssssssssssscccssscssccccsssssssssscscsssscccsssscsssssssccsssssssssssssssssscsscssssssscsssssssssssssssssssssssssssssssssssssssssssssscssssssccccssssssssssssssssssssssssscsssssssssscsssssssssssssssssssssssssssssssssssssssccssccccccscscscccccccccccccscccscsccccccccccccscc"
       d="m -304.70468,-126.94297 c 0.14786,0.007 0.27773,0.10061 0.33228,0.23823 l 1.05885,2.64428 c 0.7364,1.83962 2.09401,4.48048 3.49023,6.90243 1.39621,2.42194 2.85042,4.64643 3.7207,5.61516 4.67281,5.20143 17.055,14.986359 22.42757,17.742069 2.9519,1.51406 11.319,4.85599 16.40469,6.54326 1.18426,0.39291 2.37776,0.8496 3.35535,1.27331 0.97758,0.42372 1.70897,0.78015 2.09547,1.10536 0.78268,0.65858 1.52317,1.87317 2.18747,3.37137 0.66429,1.49821 1.23345,3.27531 1.57252,5.03484 0.7335,3.8064 1.42619,5.59599 3.3848,8.73848 0.88441,1.41899 2.51605,3.32115 4.2106,4.9997 1.69454,1.67854 3.47755,3.14744 4.57439,3.71295 0.72146,0.37196 1.94944,0.63039 2.91817,0.68161 1.85249,0.32258 1.04485,-0.73684 1.14618,-2.53886 -0.49036,-3.36644 11.02977,-11.2775 14.84405,-13.2948 -1.2914,-0.5863 -8.92276,-0.92269 -12.26592,2.09341 3.20268,-8.75483 15.09341,-8.34102 19.57452,-13.40435 -3.8901,-0.70831 -8.09442,-1.82133 -9.30693,-4.20284 2.85837,0.0563 4.86952,-0.40254 7.36338,-1.11931 2.29415,-0.99468 4.7347,-2.23532 6.03839,-4.51187 -0.004,-0.003 -0.007,-0.005 -0.0269,-0.0269 -2.05192,-1.45228 -4.5812,-1.21002 -7.06669,0.1154 3.16108,-8.150299 17.58716,-7.474039 22.21312,-11.810419 -0.15503,-0.32985 -0.0585,-0.038 -0.0461,-0.0547 -3.52091,-4.4874 -11.76158,-1.32842 -12.62472,-1.10068 1.28015,-1.83128 3.37928,-3.0152 5.11942,-3.58746 8.91368,-3.15484 14.78081,-1.10911 19.15134,2.99179 0.6602,-4.30668 -0.8013,-4.71535 -2.32822,-7.01889 2.79619,0.22553 6.32928,2.15518 9.01595,3.24402 3.79311,1.27644 6.27239,2.25238 7.98627,1.472 5.05225,-1.60776 7.0255,-2.56646 9.16404,-6.6582 1.51737,2.34209 0.89018,7.53628 0.70702,8.49269 -7.9e-4,0.002 -0.001,0.004 -0.002,0.006 -0.10857,0.57871 -0.11803,0.87519 -0.0486,1.07022 0.65295,0.69944 1.80086,2.25867 2.0888,2.00402 0.76514,-0.75201 2.12594,-1.41715 3.49691,-2.58021 0.69932,-0.59329 1.34987,-1.08456 1.85156,-1.40819 0.25084,-0.16181 0.45923,-0.28025 0.64647,-0.35553 0.0936,-0.0376 0.17761,-0.0708 0.30283,-0.0744 0.0626,-0.002 0.14211,0.004 0.23409,0.0512 0.49382,0.43877 0.0685,1.23544 -0.0971,1.70688 -0.23106,0.65544 -0.56565,1.49183 -0.95136,2.35954 -1.01659,2.28702 -1.48943,3.4221 -1.4826,3.97082 0.003,0.27436 0.0733,0.41764 0.29508,0.6444 0.22178,0.22677 0.60587,0.49628 1.13481,0.87075 1.0191,0.72148 2.58515,1.949349 3.51348,2.754359 0.58266,0.49325 0.54296,0.46452 1.18216,0.81945 9.79641,-4.083459 20.93097,-8.646419 30.44308,-10.606929 -7.68286,6.37309 -18.48664,10.796699 -26.95317,16.396899 -0.16873,0.44379 -0.12402,1.32884 0.26768,2.64429 0.82868,2.78287 0.48888,5.94603 -1.07074,10.55646 l -1.18545,3.50624 0.87695,2.59571 c 0.57098,1.68919 1.99046,4.29724 4.00234,7.3086 0.84287,1.2616 1.72857,2.24933 2.40967,2.97036 0.34055,0.36051 0.63011,0.65404 0.84388,0.8909 0.10687,0.11843 0.19389,0.22122 0.26561,0.32401 0.0717,0.10279 0.15245,0.18992 0.15245,0.40049 0,0.24927 -0.093,0.45494 -0.22066,0.68937 -0.12769,0.23442 -0.30336,0.48961 -0.5178,0.76739 -0.42886,0.55556 -1.01545,1.19642 -1.6893,1.847951 -1.34769,1.30306 -3.02503,2.64348 -4.45709,3.34967 -1.14725,0.56573 -1.77205,0.87059 -2.29082,0.97048 -0.25938,0.0499 -0.51045,0.0355 -0.72657,-0.0506 -0.17667,-0.0704 -0.31013,-0.18684 -0.44752,-0.30489 -0.58261,-0.22105 -1.00349,-0.30762 -1.26556,-0.30076 -0.26567,0.007 -0.36534,0.0692 -0.47077,0.19327 -0.21087,0.24819 -0.33005,0.93673 -0.53692,1.78129 -0.0758,0.31541 -0.1831,0.56842 -0.34003,0.76584 -0.15725,0.19785 -0.37881,0.33239 -0.60926,0.36742 -0.46091,0.0701 -0.85077,-0.17292 -1.19528,-0.45733 -0.34452,-0.28442 -0.65566,-0.6469 -0.90434,-0.99013 -0.24866,-0.34322 -0.42955,-0.63875 -0.51573,-0.89865 v -0.002 c -1.55057,-4.738581 -2.93039,-6.350921 -8.49974,-9.954951 -1.47424,-0.95398 -3.06384,-2.14966 -3.6623,-2.7988 -0.46363,-0.50285 -1.83864,-1.62746 -2.96106,-2.3983 -2.8825,-1.97961 -3.87205,-3.13233 -5.41569,-6.30659 -0.51241,-1.05371 -0.90858,-1.74821 -1.28158,-2.2226 -0.37299,-0.47439 -0.7142,-0.73642 -1.19114,-0.96894 l -1.06247,-0.51779 -0.79323,0.91208 c -1.16186,1.33566 -1.76139,3.25998 -1.74977,5.81102 0.0134,2.94846 0.53169,4.76412 2.81844,9.85728 2.26192,5.037821 3.39841,8.912401 3.8008,12.996101 0.21086,2.13989 0.0887,3.31289 -0.59583,5.75211 -0.46004,1.63948 -0.6767,2.31159 -0.65836,4.14807 0.0183,1.83647 0.28563,4.82814 0.82217,10.9492 0.18094,2.06431 0.29551,3.86335 0.34004,5.28546 0.0445,1.4221 0.0256,2.44754 -0.0879,3.0546 -0.23531,1.25964 -0.8326,2.89117 -1.47639,4.26175 -0.3219,0.68529 -0.65507,1.30171 -0.96687,1.77509 -0.1559,0.2367 -0.30671,0.43704 -0.45733,0.59789 -0.15062,0.16086 -0.28884,0.29576 -0.51522,0.3576 -0.13475,0.0368 -0.17898,0.0839 -0.22272,0.25735 -0.0437,0.17338 -0.0343,0.46523 0.0584,0.80667 0.18545,0.68286 0.6844,1.5548001 1.39475,2.2365601 0.34085,0.32713 0.69368,0.626 0.97823,0.83612 0.14228,0.10506 0.26996,0.18775 0.35967,0.23823 0.0772,0.0434 0.10665,0.0425 0.0548,0.0429 0.12113,-0.025 12.63405,-2.6073501 16.90026,-4.0819201 7.04229,-2.44449 10.90293,-3.45577 14.31799,-3.73259 1.30665,-0.1059 1.99169,-0.16985 2.53524,-0.0429 0.27177,0.0635 0.50747,0.19348 0.68937,0.36897 0.1819,0.17549 0.31719,0.38062 0.47852,0.62684 0.29119,0.44439 0.47722,0.91261 0.54932,1.54099 0.0721,0.62837 0.0475,1.42127 -0.0372,2.61947 -0.13673,1.9334401 -1.30167,6.1789001 -2.91817,11.16418011 -1.6165,4.98528999 -3.68701,10.65931989 -5.64049,15.25952989 -1.42193,3.3485 -3.05789,7.51577 -3.61735,9.20875 -0.85441,2.58555 -1.47158,3.6589 -3.15639,5.47873 -0.92883,1.00323 -1.71591,1.71281 -3.29489,2.68924 -1.57898,0.97644 -3.95749,2.23337 -8.14059,4.39663 -2.5569,1.32228 -4.895,2.51034 -6.60528,3.35949 -0.85514,0.42457 -1.55292,0.76334 -2.04484,0.99425 -0.24596,0.11545 -0.43871,0.20381 -0.58033,0.26355 -0.0708,0.0299 -0.1281,0.0524 -0.18138,0.0703 -0.0266,0.009 -0.0494,0.0174 -0.0899,0.0253 -0.0203,0.004 -0.0454,0.009 -0.092,0.008 -0.0233,-2.6e-4 -0.0946,-0.0136 -0.0956,-0.0139 -5.3e-4,-1.5e-4 -0.0776,-0.0293 -0.078,-0.0295 -5.3e-4,-2.1e-4 -0.0933,-0.0679 -0.0935,-0.0682 -0.16323,-0.16323 -0.11394,-0.20923 -0.12299,-0.26355 -0.009,-0.0543 -0.0144,-0.10456 -0.0176,-0.16433 -0.006,-0.11955 -0.007,-0.26946 -0.004,-0.45475 0.006,-0.3706 0.0282,-0.87832 0.0625,-1.4826 0.0685,-1.20858 0.18608,-2.80252 0.32401,-4.42402 0.13792,-1.62151 0.29579,-3.26908 0.44545,-4.58164 0.0748,-0.65628 0.14738,-1.2291 0.21497,-1.67586 0.0676,-0.44677 0.11415,-0.73704 0.19895,-0.95912 0.0544,-0.14353 0.19021,-0.23992 0.34365,-0.24391 1.75178,-0.0464 2.59671,0.15304 3.27939,0.0134 0.5873,-0.12011 1.38264,-0.77297 2.53525,-1.85519 -0.0686,-0.0549 -0.14086,-0.11862 -0.19534,-0.23254 -0.0555,-0.11598 -0.0587,-0.2937 -0.008,-0.41393 0.10207,-0.24047 0.25555,-0.3103 0.43925,-0.4222 0.18371,-0.11188 0.42122,-0.23651 0.73432,-0.39842 0.51552,-0.26659 0.77416,-0.45868 0.91777,-0.67386 0.1436,-0.21519 0.21445,-0.51234 0.25012,-1.07022 0.0388,-0.60674 0.008,-0.8897 -0.076,-1.03301 -0.0837,-0.1433 -0.2942,-0.28565 -0.81855,-0.51366 -0.35023,-0.15231 -0.59512,-0.27881 -0.77722,-0.4377 -0.0455,-0.0397 -0.0908,-0.0812 -0.13487,-0.15245 -0.0441,-0.0713 -0.0994,-0.20488 -0.0486,-0.36484 0.0508,-0.15995 0.18696,-0.24338 0.27131,-0.27388 0.0843,-0.0305 0.14809,-0.0351 0.2129,-0.0367 0.1416,-0.004 0.76525,-0.22926 1.10743,-0.48059 0.17452,-0.1282 0.29444,-0.22428 0.34778,-0.28112 0.0533,-0.0568 0.0384,-0.0427 0.0388,-0.0512 7.9e-4,-0.0169 -0.10102,-0.29966 -0.42168,-0.84543 -0.21992,-0.3743 -0.36758,-0.7058 -0.4315,-1.0082 -0.032,-0.15121 -0.045,-0.29847 -0.0139,-0.45269 0.031,-0.15423 0.12708,-0.32574 0.28318,-0.4222 0.10895,-0.0673 0.15773,-0.0746 0.25787,-0.10748 0.10014,-0.033 0.22787,-0.0719 0.38085,-0.11524 0.30597,-0.0866 0.71628,-0.19294 1.20717,-0.31626 0.98177,-0.24664 2.28059,-0.55423 3.66231,-0.863 2.68735,-0.60052 4.25653,-1.05187 5.07979,-1.53737 0.41163,-0.24275 0.63295,-0.47668 0.76946,-0.7519 0.13651,-0.27519 0.19172,-0.6167 0.19172,-1.08003 0,-1.20045 0.40943,-2.9659799 1.06247,-4.9490599 0.65304,-1.98306 1.55531,-4.16625 2.56831,-6.11951999 l 1.96061,-3.78116001 -0.56999,-0.46664 c -0.20977,-0.17168 -0.42936,-0.32727 -0.60152,-0.43356 -0.0763,-0.0471 -0.13754,-0.0806 -0.18552,-0.10387 -0.0304,0.0167 -0.0575,0.0302 -0.1018,0.0568 -0.13455,0.0808 -0.32257,0.20288 -0.54673,0.35347 -0.44832,0.30117 -1.04061,0.71854 -1.66037,1.17563 -5.00883,3.69422 -9.10054,6.27103 -11.75793,7.37733 -4.37437,1.82104 -9.28657,3.13435 -12.64213,3.36104 h -0.002 l -3.03548,0.20515 c -0.15691,0.0104 -0.30385,-0.0775 -0.36897,-0.22065 l -0.49196,-1.07797 v -0.002 c -0.4045,-0.88778 -1.17091,-2.04673 -1.9668,-3.03702 -0.79588,-0.99029 -1.66578,-1.8255 -2.09393,-2.04691 -1.85257,-0.95798 -3.75166,-0.51283 -5.49992,1.35909 -0.25286,0.27074 -0.72005,1.07341 -1.22267,2.16008 -0.50262,1.08668 -1.06784,2.47461 -1.63659,4.00389 -1.13751,3.0585499 -2.28667,6.6845599 -2.98483,9.6252499 -0.69215,2.91541 -2.29294,9.39189 -3.55844,14.3986 -3.35308,13.26595 -3.57626,14.96219 -3.59565,27.47068 -0.01,6.12777 -0.0106,9.15705 0.46871,11.16986 0.47925,2.01282 1.42411,3.08748 3.45508,5.44722 1.53714,1.78599 2.77581,3.47139 3.58221,4.83794 0.40319,0.68327 0.69928,1.28541 0.87075,1.79679 0.17148,0.51138 0.25931,0.94721 0.0491,1.33997 -0.32135,0.60041 -1.03955,0.97738 -2.04691,1.31052 -1.00735,0.33314 -2.32888,0.59078 -3.89847,0.75551 l -0.0393,0.002 c -1.36781,0.14218 -3.46104,0.27948 -4.71651,0.30696 l -2.26756,0.0506 c -0.0209,2.6e-4 -0.0418,-0.001 -0.0625,-0.004 l -6.10351,-0.863 c -0.10788,-0.0148 -0.20411,-0.0755 -0.26406,-0.1664 -1.08496,-1.64902 -1.83223,-3.07019 -2.38642,-4.17545 -0.55419,-1.10526 -0.93327,-1.90664 -1.19321,-2.24018 -0.12997,-0.16677 -0.1907,-0.17447 -0.17776,-0.17415 0.0129,2.7e-4 -0.0616,0.006 -0.21911,0.18552 -0.31506,0.35967 -0.81229,1.25629 -1.54254,2.68769 -0.0593,0.11651 -0.17463,0.1941 -0.30489,0.20516 -0.4056,0.0346 -0.74161,-0.20476 -0.96481,-0.48628 -0.22319,-0.28153 -0.37816,-0.62874 -0.4904,-0.98237 -0.11223,-0.35364 -0.17822,-0.7119 -0.19534,-1.02371 -0.009,-0.15591 -0.006,-0.29963 0.0176,-0.43718 0.0202,-0.11602 0.0484,-0.23937 0.15296,-0.35812 0.29846,-0.4871 0.57047,-0.99306 0.76533,-1.40973 0.099,-0.21173 0.17901,-0.40097 0.23048,-0.54674 0.0482,-0.13642 0.0622,-0.24156 0.0641,-0.23874 -0.01,-7.9e-4 -0.0564,-0.12333 -0.19896,-0.24598 -0.16286,-0.14022 -0.41062,-0.28765 -0.67799,-0.38086 -0.40954,-0.14276 -0.73545,-0.31532 -0.97462,-0.55035 -0.23917,-0.23504 -0.38087,-0.55868 -0.35554,-0.88522 0.0507,-0.65307 0.58808,-1.18334 1.44178,-1.73633 0.71146,-0.46087 1.0505,-0.80079 1.08985,-0.9002 0.0197,-0.0497 0.0241,-0.0326 -0.0139,-0.10128 -0.0379,-0.0686 -0.14955,-0.1952 -0.3359,-0.34986 -0.13986,-0.11608 -0.27387,-0.25356 -0.34003,-0.45681 -0.0662,-0.20325 -0.0281,-0.4333 0.061,-0.62322 0.17823,-0.37985 0.5285,-0.74348 1.13068,-1.34566 0.99486,-0.99485 1.51203,-1.94037 1.99781,-3.68194 0.47993,-1.72063 1.05169,-2.83648 1.89498,-3.56206 0.54533,-0.46921 1.46382,-2.05733 2.24017,-3.93206 0.77634,-1.87473 1.46396,-4.06333 1.7694,-5.83375 0.27799,-1.61164 0.38027,-4.86401 0.26148,-8.97878 l -0.18707,-6.43527 c -0.002,-0.0752 0.0182,-0.14933 0.0584,-0.2129 l 1.21284,-1.90841 c 1.26656,-1.99331 2.86406,-5.74636 3.5879,-8.45272 0.18714,-0.69969 0.26265,-1.24792 0.2129,-2.16628 -0.0497,-0.91836 -0.233,-2.19873 -0.57825,-4.27364 -0.4501,-2.70503 -0.92776,-6.48821 -1.06609,-8.45478 -0.11065,-1.57301 -0.20183,-2.46313 -0.3421,-2.9667399 -0.14027,-0.50361 -0.26597,-0.61579 -0.63458,-0.85731 -0.40292,-0.264 -0.50762,-0.33142 -0.87489,-0.27182 -0.36727,0.0596 -1.01554,0.32302 -2.19935,0.85731 -4.08116,1.8420399 -5.49625,2.1791099 -9.12295,2.1760999 -2.16474,-0.002 -3.69432,-0.1282 -5.85753,-0.78342 -2.16321,-0.65522 -4.96069,-1.8302699 -9.75961,-3.9336099 -4.52586,-1.2479483 -13.95273,-6.42156276 -19.16625,-5.23413 -0.85972,0.19845 -1.31603,0.35449 -1.46658,0.4687 -0.0753,0.0571 -0.091,0.0843 -0.11368,0.16382 -0.53747,4.5146912 -0.8102,6.9255683 0.71879,9.4454199 1.7143,2.75049 2.63643,4.4566 2.80654,6.02547 0.17011,1.56887 -0.46394,2.90007 -1.6893,4.7501 -1.92111,2.90048 -7.69031,8.65167 -12.34963,12.361 -2.83257,2.25504 -3.7614,3.24099 -4.51549,4.75423 -1.12805,2.26372 -1.18691,3.23144 -0.38499,6.31021 1.11502,4.28086 2.61188,6.65268 7.40472,11.70161 1.25342,1.32041 2.46204,2.68422 3.40599,3.82768 0.94396,1.14344 1.60798,2.00795 1.84588,2.55281 0.40396,0.92518 0.8822,2.94469 1.12862,4.63693 0.34732,2.38522 1.07512,6.06941 1.79524,9.30486 0.36005,1.61772 0.71742,3.12409 1.02526,4.30051 0.30783,1.17641 0.59399,2.0639 0.70331,2.27531 0.15397,0.29774 0.34191,0.60148 0.51367,0.83974 0.17175,0.23828 0.36513,0.42334 0.36328,0.4222 0.21766,0.13533 0.24039,0.44345 0.045,0.60927 -0.78839,0.66458 -2.13059,1.01918 -3.79718,1.2361 -1.6666,0.21692 -3.65409,0.26782 -5.67976,0.17776 -4.05135,-0.18011 -8.21428,-0.88418 -10.28723,-2.07016 -0.006,-0.004 -0.0129,-0.008 -0.0191,-0.0119 -0.26231,-0.17187 -0.3379,-0.41318 -0.41806,-0.68936 -0.0802,-0.27618 -0.13459,-0.6068 -0.17777,-0.98237 -0.0864,-0.75114 -0.11848,-1.67664 -0.12505,-2.58382 -0.0127,-1.74657 0.0696,-3.29916 0.076,-3.42201 l -2.22829,-3.26182 -1.23455,-0.49196 c -0.23349,-0.0941 -0.31146,-0.38589 -0.15607,-0.58394 l 0.7736,-0.98237 c 0.36258,-0.46095 0.59294,-1.00684 0.66198,-1.43971 0.0345,-0.21643 0.0279,-0.40216 -0.004,-0.5271 -0.032,-0.12494 -0.0772,-0.17762 -0.12506,-0.20722 -0.21979,-0.13585 -0.24728,-0.3459 -0.25373,-0.49816 -0.007,-0.15226 0.0177,-0.30329 0.0568,-0.47077 0.0784,-0.33497 0.2284,-0.72893 0.43718,-1.13843 0.18901,-0.37072 0.36254,-0.77798 0.48627,-1.12293 0.12374,-0.34495 0.18759,-0.66524 0.18759,-0.70332 0,-0.31904 -0.23079,-0.84838 -0.6289,-1.32808 -0.39811,-0.4797 -0.94719,-0.91524 -1.47433,-1.13688 l -1.10381,-0.46458 c -0.2024,-0.0848 -0.2903,-0.32355 -0.1912,-0.51934 l 2.02726,-3.97289 c -0.87002,-4.17792 -4.41452,-7.71075 -6.19703,-11.50989 l -0.002,-0.002 c -0.61031,-1.32904 -0.89024,-2.34117 -0.66611,-3.36879 0.22413,-1.02762 0.91456,-1.98743 2.09547,-3.31091 1.31648,-1.4754 2.07661,-2.60673 2.5275,-4.07003 0.45089,-1.4633 0.58963,-3.28774 0.58963,-6.10764 0,-1.8841 -0.0247,-2.9723 -0.12299,-3.62665 -0.0983,-0.65436 -0.22164,-0.84124 -0.52142,-1.14101 -0.18364,-0.18364 -0.41016,-0.3569 -0.60926,-0.47646 -0.18402,-0.1105 -0.33799,-0.14918 -0.3514,-0.15607 -0.0159,0.008 -0.0256,0.0122 -0.0491,0.0253 -0.0843,0.0469 -0.20863,0.12418 -0.36122,0.22634 -0.30519,0.20433 -0.72503,0.50694 -1.22266,0.88108 -0.99526,0.74829 -2.30529,1.78603 -3.6835,2.92592 -3.26877,2.70353 -6.26312,4.81019 -8.53901,5.99601 -3.97753,2.07247 -9.04418,6.6645 -11.6117,10.53114 -1.34554,2.02635 -2.97005,5.50682 -4.29069,8.96276 -1.32064,3.45593 -2.34109,6.91837 -2.51561,8.83823 -0.12241,1.34653 0.0861,4.06589 0.57981,7.23418 0.63098,4.0492 1.00148,5.39368 1.93373,7.05642 2.15979,3.85213 2.67045,4.95267 3.16208,6.81663 l 0.48059,1.8185 c 0.0406,0.15462 -0.0204,0.31809 -0.15244,0.40824 -2.34701,1.61047 -5.50617,2.17757 -8.48837,2.04484 -2.88477,-0.12839 -5.56331,-0.92696 -7.26933,-2.17196 -0.2561,0.0926 -0.51171,0.17826 -0.72088,0.22272 -0.12729,0.0271 -0.24059,0.0449 -0.3514,0.0486 -0.11082,0.004 -0.23288,0.0566 -0.42788,-0.13849 -2.7e-4,-2.7e-4 -0.0306,-0.0361 -0.0408,-0.0506 -0.0103,-0.0145 -0.0193,-0.0263 -0.0253,-0.0372 -0.012,-0.0219 -0.0186,-0.037 -0.0238,-0.0506 -0.0104,-0.0272 -0.0137,-0.0451 -0.0176,-0.061 -0.008,-0.0317 -0.0116,-0.0569 -0.0155,-0.0837 -0.008,-0.0537 -0.0152,-0.11489 -0.0217,-0.18966 -0.0129,-0.1495 -0.0256,-0.34951 -0.0388,-0.59169 -0.0264,-0.48437 -0.0532,-1.1297 -0.0801,-1.81074 -0.0507,-1.28616 -0.097,-2.61899 -0.13075,-3.27526 -0.13836,-0.0851 -0.58269,-0.35698 -1.18752,-0.74207 -0.34619,-0.22041 -0.69886,-0.44754 -0.98082,-0.63872 -0.14097,-0.0956 -0.26429,-0.1819 -0.36328,-0.2558 -0.099,-0.0739 -0.1579,-0.10414 -0.2496,-0.22066 -0.16209,-0.20596 -0.17196,-0.43779 -0.15451,-0.66249 0.0175,-0.2247 0.0745,-0.46573 0.15606,-0.73794 0.16318,-0.54444 0.42794,-1.21158 0.72864,-1.9668 0.6014,-1.51044 1.34015,-3.37195 1.65054,-5.14852 0.69167,-3.95881 1.67104,-6.70977 3.40238,-9.52759 0.69472,-1.13068 1.94084,-3.16228 2.76934,-4.51342 0.80851,-1.3185 2.1461,-3.95887 2.93781,-5.80843 1.18402,-2.7661 1.45878,-3.86813 1.59524,-6.40426 0.0704,-1.30796 0.0804,-2.11027 0.0139,-2.61948 -0.0665,-0.50922 -0.17489,-0.7076 -0.42168,-0.9803 -0.22647,-0.25025 -0.42554,-0.41566 -0.57464,-0.49816 -0.1491,-0.0825 -0.22895,-0.0878 -0.30075,-0.0703 -0.14361,0.035 -0.42352,0.30802 -0.71262,0.99994 -0.16416,0.39288 -0.521,1.00423 -0.98857,1.75803 -0.46758,0.7538 -1.04105,1.63232 -1.61696,2.48047 -0.5759,0.84815 -1.15211,1.66494 -1.62677,2.29857 -0.23733,0.31681 -0.44895,0.58792 -0.62529,0.79684 -0.17633,0.20895 -0.27776,0.34285 -0.46302,0.45734 h -0.002 c -0.14533,0.0898 -0.40496,0.0871 -0.54725,-0.0103 -0.14229,-0.0971 -0.20037,-0.21329 -0.24805,-0.3297 -0.0953,-0.23279 -0.13074,-0.50963 -0.13074,-0.83819 0,-0.62665 -0.22167,-1.24623 -0.54467,-1.68568 -0.323,-0.43945 -0.72548,-0.67397 -1.07229,-0.66404 -0.20646,0.006 -0.35261,0.0673 -0.63303,0.41444 -0.28043,0.34714 -0.63663,0.96849 -1.11156,1.93942 -0.70123,1.43354 -1.88274,3.30234 -2.69906,4.24987 l -1.4025,1.62677 c -0.22792,0.26381 -0.66108,0.10471 -0.66404,-0.24391 l -0.0212,-2.96468 c -0.0176,-2.47257 -0.47146,-4.35102 -1.69344,-6.22856 -1.22198,-1.87754 -3.23684,-3.7598 -6.38876,-6.12314 -2.64169,-1.98077 -5.61754,-4.59766 -8.15815,-7.09207 -2.54062,-2.4944 -4.63638,-4.84143 -5.55057,-6.37894 -1.52873,-2.57103 -1.62228,-2.92104 -1.65055,-6.32571 -0.0117,-1.40844 -0.0547,-2.30783 -0.15451,-2.89853 -0.0998,-0.5907 -0.23417,-0.85034 -0.4687,-1.1095 -0.38205,-0.42215 -1.05433,-0.65365 -1.94717,-0.62321 -0.89284,0.0304 -1.98084,0.32657 -3.10162,0.89452 -0.52411,0.26558 -0.99881,0.48482 -1.35548,0.62735 -0.17833,0.0713 -0.32438,0.12169 -0.45113,0.15399 -0.0634,0.0162 -0.11503,0.0327 -0.2067,0.0315 -0.0458,-5.3e-4 -0.10698,5.3e-4 -0.20361,-0.0512 -0.0966,-0.052 -0.20877,-0.22192 -0.20877,-0.34933 0,-0.16458 0.021,-0.13762 0.0331,-0.17208 0.0121,-0.0344 0.0272,-0.0695 0.045,-0.11317 0.0356,-0.0873 0.0851,-0.20154 0.14831,-0.34365 0.12648,-0.28422 0.30654,-0.67766 0.52968,-1.15445 0.38621,-6.3808264 6.07517,-12.50513796 10.44481,-17.4412659 -5.19626,-0.277051 -6.78092,-0.926516 -9.73426,-4.156384 -0.19157,-0.21041 -0.34976,-0.39586 -0.4687,-0.55449 -0.0595,-0.0793 -0.10888,-0.15056 -0.15038,-0.22479 -0.0415,-0.0742 -0.0915,-0.1341 -0.0915,-0.30076 0,-0.16139 0.0908,-0.28059 0.1602,-0.34209 0.0694,-0.0615 0.13284,-0.0934 0.19689,-0.12093 0.12808,-0.0551 0.26636,-0.089 0.42994,-0.11885 0.32717,-0.0597 0.74814,-0.092 1.21285,-0.092 2.20993,0 5.67005,-1.0724701 8.52145,-2.4220701 1.42569,-0.67481 2.70525,-1.41917 3.60959,-2.11305 0.45218,-0.34695 0.81091,-0.6814 1.04283,-0.97462 0.23193,-0.29322 0.32401,-0.53585 0.32401,-0.67954 0,-0.096 -0.0549,-0.22578 -0.23254,-0.38861 -0.17761,-0.16284 -0.46654,-0.33629 -0.83561,-0.48472 -2.57301,-0.856803 -6.13517,-0.28764 -7.89667,-2.31046 -0.12499,-0.15061 -0.28576,-0.28518 -0.24805,-0.60151 0.0189,-0.15816 0.13382,-0.30675 0.24236,-0.37724 0.10855,-0.0705 0.21389,-0.10078 0.33177,-0.12661 0.47149,-0.10334 1.23526,-0.10542 2.66443,-0.10542 3.84253,0 6.51874,-0.76667 8.22637,-2.26601 0.65592,-0.57591 2.33563,-2.67633 3.58015,-4.53874 3.41649,-5.11269 4.35649,-6.19122 7.0528,-8.11527 4.44012,-3.16839 11.58775,-5.46481 17.06252,-5.48235 4.06004,-0.0131 9.08827,1.76811 13.45861,4.72426 1.9162,1.29617 4.24949,2.87175 5.18366,3.4985 1.16077,0.77879 2.86366,1.66116 4.41989,2.34145 0.77811,0.34015 1.52007,0.63145 2.13889,0.83406 0.61881,0.20262 1.13306,0.31058 1.35547,0.31058 0.18544,0 0.64395,-0.11045 1.13481,-0.30644 0.49086,-0.196 1.03475,-0.46984 1.49604,-0.76585 1.87481,-1.20307 4.75715,-2.31058 8.4279,-3.26181 4.11588,-1.0666 10.89755,-1.44313 25.98447,-1.48415 8.19502,-0.0223 12.20131,-0.0249 14.47457,-0.29301 2.27326,-0.26815 2.7832,-0.74455 4.27726,-1.86913 0.65754,-0.49483 1.09631,-0.92772 1.31413,-1.24592 0.10891,-0.1591 0.1605,-0.28706 0.17415,-0.36535 0.0136,-0.0783 0.003,-0.0998 -0.0196,-0.13488 -0.0451,-0.0701 -0.27877,-0.22366 -0.77722,-0.28887 -0.49843,-0.0652 -1.2209,-0.0565 -2.13888,0.045 -0.89175,0.0986 -1.38461,0.15306 -1.7477,0.0956 -0.0908,-0.0144 -0.18011,-0.0332 -0.28525,-0.10387 -0.10515,-0.0707 -0.21129,-0.24255 -0.21084,-0.38861 7.9e-4,-0.2921 0.13981,-0.37857 0.2558,-0.50178 0.16206,-0.17214 0.26461,-0.31305 0.30644,-0.39842 0.0418,-0.0854 0.0311,-0.0872 0.0294,-0.092 -0.002,-0.005 -0.0287,-0.0553 -0.14676,-0.1328 -0.11811,-0.0775 -0.31463,-0.17255 -0.57981,-0.27337 -0.35727,-0.13584 -0.64027,-0.16728 -1.2268,-0.0372 -0.58653,0.13007 -1.44599,0.44209 -2.80086,0.99064 -0.91029,0.36854 -1.76707,0.70348 -2.41794,0.94723 -0.32543,0.12187 -0.59884,0.2189 -0.8046,0.28887 -0.10288,0.035 -0.18918,0.0631 -0.25993,0.0837 -0.0708,0.0206 -0.0789,0.0434 -0.22635,0.0434 -0.096,0 -0.24902,-0.0623 -0.32401,-0.16433 -0.075,-0.10208 -0.0819,-0.19191 -0.0822,-0.25011 -5.3e-4,-0.1164 0.0247,-0.17074 0.0486,-0.23616 0.0478,-0.13084 0.11959,-0.26929 0.21704,-0.44132 0.19491,-0.34406 0.49072,-0.80081 0.84956,-1.30276 0.95043,-1.3295 1.4072,-2.0261 1.46658,-2.25775 0.0297,-0.11582 0.0372,-0.0638 -0.0212,-0.12919 -0.0584,-0.0654 -0.23876,-0.19094 -0.50178,-0.36328 -0.23168,-0.15181 -0.39038,-0.24484 -0.50436,-0.28112 -0.11398,-0.0363 -0.19302,-0.0427 -0.37466,0.0119 -0.36327,0.1091 -1.05785,0.52767 -2.37918,1.37304 -1.24156,0.79434 -3.16589,1.69482 -4.98987,2.41019 -0.912,0.35769 -1.79713,0.6682 -2.55696,0.89039 -0.75981,0.22219 -1.37896,0.36122 -1.84382,0.36122 -0.10333,0 -0.24014,-0.0253 -0.35346,-0.12454 -0.11332,-0.0993 -0.16039,-0.24771 -0.16589,-0.3576 -0.011,-0.21979 0.0621,-0.36924 0.15607,-0.55656 0.18798,-0.37464 0.52898,-0.85981 1.03353,-1.4981 0.9316,-1.17857 1.4732,-2.07913 1.65778,-2.69337 0.0923,-0.30713 0.0969,-0.53263 0.0512,-0.70125 -0.0457,-0.16863 -0.13645,-0.29963 -0.32246,-0.43564 -0.52144,-0.38128 -0.72725,-0.4851 -1.4454,-0.26355 -0.71813,0.22156 -1.89186,0.86172 -3.93929,2.07223 -6.59464,3.89897 -13.85583,5.21212 -20.26388,3.63078 -0.76288,-0.18826 -1.45575,-0.38939 -1.96836,-0.56637 -0.2563,-0.0885 -0.46485,-0.17027 -0.62735,-0.24805 -0.0813,-0.0389 -0.15144,-0.0749 -0.22065,-0.12505 -0.0346,-0.0251 -0.0681,-0.0518 -0.10904,-0.10129 -0.0409,-0.0495 -0.1018,-0.13173 -0.1018,-0.27182 0,-0.1852 0.0998,-0.27356 0.15244,-0.31832 0.0527,-0.0448 0.0937,-0.0656 0.13488,-0.0858 0.0823,-0.0403 0.16739,-0.0699 0.2713,-0.1018 0.20782,-0.0637 0.48366,-0.13031 0.82424,-0.20102 0.68116,-0.14142 1.61007,-0.29627 2.63084,-0.43357 5.3498,-0.71953 8.58615,-1.63066 12.11916,-3.40237 1.9319,-0.96879 3.99126,-2.15047 5.55884,-3.1502 0.78378,-0.49986 1.44517,-0.95478 1.90014,-1.30896 0.22748,-0.17709 0.40328,-0.32998 0.50953,-0.43925 0.0287,-0.0295 0.0373,-0.0434 0.0548,-0.0646 -0.009,0.0184 -0.0101,1.2e-4 -0.11524,-0.0915 -0.13782,-0.12003 -0.3492,-0.25761 -0.57774,-0.36174 -0.3343,-0.15232 -0.62127,-0.20137 -1.28364,-0.0977 -0.66238,0.10371 -1.66265,0.37727 -3.26751,0.8692 -6.62534,2.03092 -7.95612,2.17577 -19.62877,2.08204 -5.74445,-0.0461 -9.09881,-0.12746 -11.5254,-0.43356 -2.42658,-0.3061 -3.92793,-0.8483 -5.86734,-1.77715 l -1.89807,-0.91003 c -0.3694,-0.18145 -0.22389,-0.73896 0.18706,-0.71675 l 4.15841,0.26148 c 3.15576,0.19868 7.51108,0.26548 11.45718,0.2186 3.9461,-0.0469 7.50938,-0.21403 8.99583,-0.45889 5.12872,-0.84484 8.36696,-2.41995 11.86129,-5.763471 0.89772,-0.85897 1.3453,-1.49875 1.41645,-1.83193 0.0356,-0.16659 0.0162,-0.24203 -0.0667,-0.35399 -0.0829,-0.11195 -0.2633,-0.2524 -0.56224,-0.3886 -0.3219,-0.14668 -0.58638,-0.19239 -1.16633,-0.0956 -0.57995,0.0968 -1.44509,0.35508 -2.80861,0.81855 -10.62886,3.612811 -22.12731,3.958801 -31.20327,0.91209 -1.48795,-0.49949 -4.43437,-1.82604 -7.21093,-3.17397 -1.38828,-0.67396 -2.72894,-1.35264 -3.8101,-1.93166 -1.08116,-0.57902 -1.88389,-1.03706 -2.28358,-1.35909 -0.18176,-0.14645 -0.31601,-0.25311 -0.42737,-0.37931 -0.0557,-0.0631 -0.12561,-0.12502 -0.15038,-0.29662 -0.0124,-0.0858 0.007,-0.20836 0.0661,-0.29714 0.0587,-0.0888 0.13444,-0.13532 0.19327,-0.16175 0.23536,-0.10571 0.36124,-0.0656 0.59583,-0.0512 0.2346,0.0145 0.54085,0.046 0.94517,0.0899 0.9209,0.10004 3.13747,0.28754 4.90047,0.41238 1.78608,0.12649 4.84454,0.47676 6.83421,0.7829 2.63019,0.40467 6.53798,0.68759 10.14047,0.7953 3.60248,0.10771 6.9393,0.0307 8.30853,-0.23668 1.43968,-0.28114 2.9211,-0.73682 4.02353,-1.19321 0.55121,-0.2282 1.00906,-0.45804 1.30845,-0.65422 0.14969,-0.0981 0.25868,-0.18918 0.31471,-0.25012 0.0254,-0.0276 0.0323,-0.0432 0.0357,-0.0496 -0.004,-0.14543 -0.028,-0.207 -0.12764,-0.2961 -0.1087,-0.0972 -0.35675,-0.22046 -0.79686,-0.32246 -0.8802,-0.20401 -2.48393,-0.33355 -5.1387,-0.45476 -11.2362,-0.51303 -14.11505,-0.99061 -22.40018,-3.70313 -2.54042,-0.83174 -4.51787,-1.56203 -5.97276,-2.21123 -1.4549,-0.6492 -2.38408,-1.19069 -2.86908,-1.77509 -0.0839,-0.10105 -0.16102,-0.19237 -0.22686,-0.28525 -0.0658,-0.0929 -0.14608,-0.16606 -0.154,-0.38086 -0.004,-0.1074 0.0523,-0.26607 0.15038,-0.3514 0.0981,-0.0853 0.19334,-0.10656 0.26924,-0.1173 0.15178,-0.0215 0.277,-0.003 0.45113,0.0274 0.69652,0.12088 2.09535,0.53891 4.92787,1.37511 7.7293,2.28186 14.32293,2.7368 18.9606,1.51929 0.57871,-0.15193 0.90331,-0.36552 1.01182,-0.50591 0.10851,-0.14039 0.1079,-0.17975 -0.0155,-0.35915 -0.24679,-0.35881 -1.27095,-0.92185 -2.85357,-1.15652 -0.65489,-0.0971 -2.9305,-0.44698 -4.51342,-0.95085 -1.58292,-0.50386 -3.50739,-1.16168 -5.47253,-1.86345 -3.93029,-1.40354 -8.00837,-2.97807 -9.87899,-3.8964 -1.56867,-0.77015 -3.86849,-2.16315 -5.75417,-3.41013 -0.94284,-0.62349 -1.78002,-1.20831 -2.37091,-1.66605 -0.29545,-0.22887 -0.52783,-0.42377 -0.6935,-0.59014 -0.0828,-0.0832 -0.14819,-0.15366 -0.20671,-0.25167 -0.0293,-0.049 -0.0627,-0.10474 -0.0765,-0.20102 -0.0138,-0.0963 0.0197,-0.26209 0.11938,-0.36173 0.17679,-0.1768 0.28084,-0.12797 0.35553,-0.12506 0.0747,0.003 0.13919,0.0138 0.21291,0.0295 0.14743,0.0313 0.32353,0.0834 0.53123,0.15244 0.41541,0.13804 0.95276,0.34622 1.52342,0.59583 3.61896,1.58292 7.56349,2.5957 27.67376,7.08381 1.78689,0.39879 3.43192,0.57635 4.76974,0.53898 1.33781,-0.0374 2.3656,-0.30477 2.90215,-0.69711 0.2126,-0.15546 0.26143,-0.26643 0.26561,-0.3049 0.004,-0.0385 -0.007,-0.11456 -0.17983,-0.27336 -0.34606,-0.31761 -1.25677,-0.76424 -2.68717,-1.24024 -2.70788,-0.90112 -6.5172,-2.43419 -9.95547,-3.94704 -3.43827,-1.51286 -6.47467,-2.98217 -7.73028,-3.84008 -3.54219,-2.42027 -7.78152,-6.10403 -10.1017,-8.78706 -1.01015,-1.168139 -2.4621,-3.166789 -3.67368,-4.970759 -0.6058,-0.90198 -1.14859,-1.75397 -1.54513,-2.42775 -0.19827,-0.3369 -0.36037,-0.62856 -0.47645,-0.86713 -0.11609,-0.23858 -0.20719,-0.36654 -0.20723,-0.63252 -10e-6,-0.0696 0.0184,-0.17222 0.092,-0.26407 0.0735,-0.0918 0.18874,-0.1393 0.26769,-0.15038 0.15788,-0.0222 0.22381,0.0177 0.293,0.047 0.13838,0.0586 0.26269,0.14346 0.41961,0.25786 0.31385,0.2288 0.72353,0.57755 1.17409,1.00769 0.86344,0.82432 3.20942,2.87812 5.17953,4.53151 8.57004,7.192319 12.85154,9.886279 16.35146,10.437089 0.57792,0.091 0.98866,0.0827 1.10742,0.0434 0.011,-0.004 0.007,-0.002 0.0124,-0.004 -0.18999,-0.5431 -0.56937,-1.02767 -0.84593,-1.37769 -0.47559,-0.59805 -1.15121,-1.36362 -2.03347,-2.32028 -8.24707,-8.942619 -12.59534,-17.172779 -12.54497,-24.011449 0.0121,-1.64468 0.13869,-3.63496 0.30076,-4.53306 l 0.27182,-1.51153 c 0.0322,-0.17646 0.18397,-0.30598 0.36328,-0.31006 0.009,-2.6e-4 0.0179,-2.6e-4 0.0269,0 z m 0.70177,102.42941 c -0.35112,0.005 -0.71566,0.0353 -1.09399,0.0548 -1.46624,0.11947 -2.89259,0.48573 -4.2323,1.09193 -0.94501,0.42759 -1.3237,0.67921 -2.24793,1.21284 -1.88544,1.17495 -3.61037,2.61277 -5.03897,4.30672 -0.26174,0.31037 -0.50913,0.64928 -0.77566,0.99012 -0.90664,1.2574 -1.6489,2.61824 -1.96681,4.10724 -0.20581,0.96398 -0.16636,1.28761 -0.1912,2.30063 0.0504,2.4520201 0.92341,4.7607101 1.90015,7.0528001 1.06815,2.44225001 2.19913,4.85594 3.36516,7.25589 1.26896,2.49929 2.36094,5.07588 3.35174,7.6879099 0.99484,2.56461 1.68799,5.21724 2.26394,7.88427 5.3e-4,0.003 0.001,0.007 0.002,0.0103 0.47523,2.48653 0.79767,4.99858 0.95912,7.52513 4e-5,0.003 4e-5,0.007 0,0.0103 0.0739,1.9068 0.0809,3.81064 0.094,5.7087 0.01,1.05677 0.0663,2.0941 0.23202,3.10937 1.6526,-2.549615 4.06036,-4.682672 5.71122,-6.72815 l 0.004,-0.006 c 1.96984,-2.69342 3.57478,-5.63401 5.03328,-8.65063 0.82716,-1.77688 1.50951,-3.61691 1.99988,-5.50974 0.2942,-1.13564 0.36077,-1.55657 0.59014,-2.71095 0.49141,-2.6969799 0.59815,-5.4553499 0.67593,-8.2222399 l -0.002,0.008 c 0.018,-3.00741999 0.1425,-6.00711 0.31213,-9.0041 v -0.002 c 0.15389,-2.54872 0.30294,-5.0984201 0.46715,-7.6486301 v -0.002 c 0.12974,-1.87226 0.26662,-3.75634 0.57775,-5.63066 0.2088,-1.34066 0.72299,-2.56624 1.29346,-3.73673 0.12403,-0.25287 0.26305,-0.49429 0.39636,-0.74 -1.17796,0.0954 -2.35829,0.12211 -3.52175,-0.006 -0.007,-10e-4 -0.0142,-0.002 -0.0212,-0.004 -1.82596,-0.31153 -3.60204,-0.78352 -5.379,-1.15652 -1.58301,-0.31698 -3.17417,-0.58002 -4.75785,-0.55862 z m 141.62698,45.55074 c -0.01,5.2e-4 -0.0199,0.0117 -0.0295,0.0119 -0.0162,2.6e-4 -0.0149,0.007 0.0253,-0.008 7.9e-4,-2.6e-4 0.003,-0.004 0.004,-0.004 z"
       style="fill:#120A22;fill-opacity:1;stroke:none;stroke-width:0.529167;stroke-linecap:round;stroke-linejoin:round"
       id="path943" />
    <path
       id="unicorn-horn"
       style="fill:#120A22;fill-opacity:1;stroke:none"
       d="M -162,-105 L -150,-108 L -150,-150 Z" />
    <g
       transform="translate(-40.169983,-76.561373)"
       style="opacity:1;fill:#cfbddd"
       id="g980" />
  </g>
</svg>
